<svg id="Layer_1" data-name="Layer 1" xmlns="http://www.w3.org/2000/svg" viewBox="0 0 563.87 99.93"><defs><style>.cls-1{fill:#dbdbdb;}.cls-2{fill:#c1bdbe;}</style></defs><title>header</title><polygon class="cls-1" points="540.72 0 563.87 10.31 540.72 20.62 547.44 10.31 540.72 0"/><path class="cls-2" d="M4.56,104.19V65.81h14.8c8.94,0,12.76,3.24,12.76,9.83,0,4.81-3.87,7.63-7.27,8.42v.21c5.65.37,8.68,3.76,8.68,8.94,0,7.74-5.07,11-14.48,11Zm11.5-23.32c3.61,0,5.54-.58,5.54-3.56C21.6,75.38,21,74,18,74H15v6.9ZM18,95.93c3.76,0,5.23-1,5.23-3.76,0-2-1.1-3.45-4.08-3.45H15v7.21Z" transform="translate(-3.86 -4.89)"/><path class="cls-2" d="M49.32,95.67H61.81v8.52h-23V65.81H49.32Z" transform="translate(-3.86 -4.89)"/><path class="cls-2" d="M87.48,65.81H97.73V90.23c0,9.31-4.91,14.59-16,14.59-11.66,0-15.47-5.7-15.47-15v-24H76.5V86.88c0,6.22.47,9.67,5.54,9.67s5.44-3.19,5.44-9.67Z" transform="translate(-3.86 -4.89)"/><path class="cls-2" d="M127.12,88.77H115.35v6.9h14v8.52H104.84V65.81h23.84v8.47H115.35v6.27h11.76Z" transform="translate(-3.86 -4.89)"/><path class="cls-1" d="M155,104.19H144.53V65.81h15.58c9.31,0,13.07,4.6,13.07,11.4,0,3.92-.89,8.73-6.33,11l7.21,15.94H162.93l-6.12-14.53H155Zm2.3-22.27c3,0,5.38-.52,5.38-3.92,0-2.3-1.1-4-4.5-4H155v7.95Z" transform="translate(-3.86 -4.89)"/><path class="cls-1" d="M177.57,85.21c0-12.81,7-20.08,17.67-20.08,11.19,0,16.68,7.11,16.68,19.45,0,12.86-6,20.23-17.3,20.23S177.57,97.6,177.57,85.21Zm23.37-.52c0-8.47-2.14-11.24-6-11.24-3.45,0-6.33,2.67-6.33,11.45,0,8.63,2.09,11.81,6.22,11.81C198.69,96.71,200.94,93.84,200.94,84.69Z" transform="translate(-3.86 -4.89)"/><path class="cls-1" d="M237.54,104.19,226.2,82.13v22.06h-9.72V65.81h12l10.82,22.74V65.81H249v38.37Z" transform="translate(-3.86 -4.89)"/><path class="cls-1" d="M255.58,104.19V65.81h11c14.27,0,20.18,6.74,20.18,18,0,13.23-5.7,20.34-20.34,20.34Zm12.34-8.52c4.81,0,8.16-2.61,8.16-11s-3.24-10.4-8.31-10.4h-1.67V95.67Z" transform="translate(-3.86 -4.89)"/><path class="cls-1" d="M290.25,85.21c0-12.81,7-20.08,17.67-20.08,11.19,0,16.68,7.11,16.68,19.45,0,12.86-6,20.23-17.31,20.23S290.25,97.6,290.25,85.21Zm23.37-.52c0-8.47-2.14-11.24-6-11.24-3.45,0-6.33,2.67-6.33,11.45,0,8.63,2.09,11.81,6.22,11.81C311.37,96.71,313.62,93.84,313.62,84.69Z" transform="translate(-3.86 -4.89)"/><path class="cls-1" d="M364.07,104c-6.06,1.46-9.88.78-11.24-3.08-1.52,2.41-4,3.92-8.21,3.92-6,0-8.05-3.76-8.05-7.89,0-7.32,6.48-7.95,15-8.84v-.68c0-2.82-.21-4.39-2.41-4.39-1.62,0-2.46,1-2,3.5l-9.25.89C337,81.18,340,76.58,349.49,76.58c9.25,0,12.08,4.34,12.08,11v8.89c0,1.36.37,2,2.25,1.67ZM348,63.46l6.85,8.26-3.82,3.35-8.42-6.48Zm3.5,30c-3.82.47-4.86,1.31-4.86,3.08a2.06,2.06,0,0,0,2,2.09c2,0,2.88-2,2.88-4Z" transform="translate(-3.86 -4.89)"/><path class="cls-1" d="M386.35,104.19H376.15V65.81h10.19Z" transform="translate(-3.86 -4.89)"/><path class="cls-1" d="M417,104c-6.07,1.46-9.88.78-11.24-3.08-1.52,2.41-4,3.92-8.21,3.92-6,0-8.05-3.76-8.05-7.89,0-7.32,6.48-7.95,15-8.84v-.68c0-2.82-.21-4.39-2.4-4.39-1.62,0-2.46,1-2,3.5l-9.25.89c-.89-6.22,2.09-10.82,11.61-10.82,9.25,0,12.08,4.34,12.08,11v8.89c0,1.36.37,2,2.25,1.67ZM404.44,93.42c-3.82.47-4.86,1.31-4.86,3.08a2.06,2.06,0,0,0,2,2.09c2,0,2.88-2,2.88-4Z" transform="translate(-3.86 -4.89)"/><path class="cls-1" d="M436.64,74.28h-9.72V65.81h29.9v8.47H447.1v29.9H436.64Z" transform="translate(-3.86 -4.89)"/><path class="cls-1" d="M482.5,65.81h10.25V90.23c0,9.31-4.91,14.59-16,14.59-11.66,0-15.47-5.7-15.47-15v-24h10.25V86.88c0,6.22.47,9.67,5.54,9.67s5.44-3.19,5.44-9.67Z" transform="translate(-3.86 -4.89)"/><path class="cls-1" d="M508.22,104.19H497.77V65.81h15.58c9.31,0,13.07,4.6,13.07,11.4,0,3.92-.89,8.73-6.33,11l7.21,15.94H516.17l-6.12-14.53h-1.83Zm2.3-22.27c3,0,5.39-.52,5.39-3.92,0-2.3-1.1-4-4.5-4h-3.19v7.95Z" transform="translate(-3.86 -4.89)"/><path class="cls-1" d="M543.15,80.09,554.7,65.81h11.71L553.34,81.39l14.38,22.79H555.38l-9.1-14.43-3.14,3.76v10.66H532.64V65.81h10.51Z" transform="translate(-3.86 -4.89)"/><path class="cls-1" d="M249.54,13.1l-1.86.15a3,3,0,0,0-.54-1.32,3.16,3.16,0,0,0-1-.89,5.13,5.13,0,0,0-1.45-.5,9.11,9.11,0,0,0-1.77-.16q-.41,0-.91,0a4,4,0,0,0-.93.19,1.87,1.87,0,0,0-.72.43,1,1,0,0,0-.29.76.83.83,0,0,0,.32.67,2.64,2.64,0,0,0,.87.44,8.67,8.67,0,0,0,1.27.3l1.52.23q.79.11,1.63.26t1.62.37a5.24,5.24,0,0,1,2.31,1.29,3.18,3.18,0,0,1,.83,2.31,3.52,3.52,0,0,1-.43,1.77,3.67,3.67,0,0,1-1.22,1.27,6,6,0,0,1-1.87.77,10,10,0,0,1-2.36.26,10.67,10.67,0,0,1-2.49-.24,9.82,9.82,0,0,1-1.64-.54,2,2,0,0,0-.85-.22A.72.72,0,0,0,239,21a1.85,1.85,0,0,0-.37.51h-1.88V17l1.86-.1a2.85,2.85,0,0,0,1.55,2.27,7.57,7.57,0,0,0,3.7.77,10.58,10.58,0,0,0,1.23-.07,3.75,3.75,0,0,0,1-.25,1.67,1.67,0,0,0,.7-.53,1.42,1.42,0,0,0,.26-.88,1,1,0,0,0-.56-.88,5.35,5.35,0,0,0-1.44-.48q-.88-.18-2-.3a19.8,19.8,0,0,1-2.17-.36,6.66,6.66,0,0,1-3.15-1.39,3.42,3.42,0,0,1-1-2.64,3.29,3.29,0,0,1,.29-1.36A3,3,0,0,1,238,9.66a5,5,0,0,1,1.63-.79,8.41,8.41,0,0,1,2.4-.3,11.08,11.08,0,0,1,2.44.22,9.84,9.84,0,0,1,1.59.49,3.11,3.11,0,0,0,.4.15,1.28,1.28,0,0,0,.36.05,1.08,1.08,0,0,0,.65-.16,2.12,2.12,0,0,0,.44-.48h1.59Z" transform="translate(-3.86 -4.89)"/><path class="cls-1" d="M267.69,14l-1.8.05a4.93,4.93,0,0,0-.73-2.72,2.19,2.19,0,0,0-1.83-.8h-1.4V19.3q0,.78,1.86.78v1.39h-7.91V20.08q1.84,0,1.84-.78V10.58h-1.42a2.16,2.16,0,0,0-1.82.8,5.1,5.1,0,0,0-.74,2.72l-1.8-.05V8.85h15.75Z" transform="translate(-3.86 -4.89)"/><path class="cls-1" d="M283.48,12.67l-2.06.08a2.06,2.06,0,0,0-2.31-2.18h-3.88v3.55h1.57q1,0,1.16-1.9h1.82l-.31,5.3h-1.78q-.23-2-1-2h-1.42v4.18h3.14a3.13,3.13,0,0,0,3.51-3.23l2.11.12-.5,4.85H269.2V20.08q1.84,0,1.84-.78V11q0-.78-1.84-.78V8.85h14.29Z" transform="translate(-3.86 -4.89)"/><path class="cls-1" d="M302.93,19.27a2.3,2.3,0,0,1-.19.92,1.94,1.94,0,0,1-.57.74,2.76,2.76,0,0,1-1,.49,5.28,5.28,0,0,1-1.46.18,6,6,0,0,1-1.68-.2,3.16,3.16,0,0,1-1.12-.56,2.22,2.22,0,0,1-.64-.83,2.53,2.53,0,0,1-.21-1v-1.1a5.53,5.53,0,0,0-.09-1.1,1.56,1.56,0,0,0-.32-.71,1.29,1.29,0,0,0-.6-.38,3.18,3.18,0,0,0-1-.12h-2.4V19.3q0,.78,2.29.78v1.39h-8.32V20.1q1.84,0,1.84-.78V11q0-.78-1.84-.78V8.85h9.81a17.51,17.51,0,0,1,2,.11,5.77,5.77,0,0,1,1.72.45,3,3,0,0,1,1.21,1,2.71,2.71,0,0,1,.45,1.64,2.6,2.6,0,0,1-.25,1.16A2.78,2.78,0,0,1,300,14a3.37,3.37,0,0,1-.92.58,5,5,0,0,1-1.07.32,4.07,4.07,0,0,1,1,.37,2.47,2.47,0,0,1,.72.59,2.43,2.43,0,0,1,.45.88,4.29,4.29,0,0,1,.16,1.22v1.36a.74.74,0,0,0,.19.55.66.66,0,0,0,.47.18.69.69,0,0,0,.5-.18.73.73,0,0,0,.19-.55v-.82h1.3Zm-11.21-8.6v3.47h2.64a2.71,2.71,0,0,0,1.68-.42,1.77,1.77,0,0,0,.53-1.47,1.4,1.4,0,0,0-.52-1.18,2.8,2.8,0,0,0-1.69-.4Z" transform="translate(-3.86 -4.89)"/><path class="cls-1" d="M318.52,12.67l-2.06.08a2.06,2.06,0,0,0-2.31-2.18h-3.88v3.55h1.57q1,0,1.16-1.9h1.82l-.31,5.3h-1.78q-.23-2-1-2h-1.42v4.18h3.14a3.13,3.13,0,0,0,3.51-3.23l2.11.12-.5,4.85H304.23V20.08q1.84,0,1.84-.78V11q0-.78-1.84-.78V8.85h14.29Z" transform="translate(-3.86 -4.89)"/><path class="cls-1" d="M328.7,8.57a13.51,13.51,0,0,1,3.09.33,6.48,6.48,0,0,1,2.44,1.1,5.07,5.07,0,0,1,1.59,2,7.63,7.63,0,0,1,.57,3.12,7.43,7.43,0,0,1-.49,2.75A5.23,5.23,0,0,1,334.42,20a6.86,6.86,0,0,1-2.49,1.31,12.14,12.14,0,0,1-3.54.46,13.74,13.74,0,0,1-3.08-.32,6.63,6.63,0,0,1-2.43-1.06,5,5,0,0,1-1.59-2,7,7,0,0,1-.57-3,8.68,8.68,0,0,1,.44-2.87,5.22,5.22,0,0,1,1.4-2.16A6.37,6.37,0,0,1,325,9,12.45,12.45,0,0,1,328.7,8.57Zm.1,1.8a3.88,3.88,0,0,0-2.94,1,4.62,4.62,0,0,0-1,3.26,11.65,11.65,0,0,0,.25,2.66,4.17,4.17,0,0,0,.7,1.61,2.3,2.3,0,0,0,1.11.79,4.6,4.6,0,0,0,1.43.21,5.57,5.57,0,0,0,1.77-.25,2.62,2.62,0,0,0,1.2-.8,3.49,3.49,0,0,0,.68-1.44,9.21,9.21,0,0,0,.22-2.16,9.79,9.79,0,0,0-.25-2.42,3.89,3.89,0,0,0-.7-1.5,2.37,2.37,0,0,0-1.09-.77A4.44,4.44,0,0,0,328.8,10.38Z" transform="translate(-3.86 -4.89)"/><polygon class="cls-1" points="221.53 3.5 8.56 10.78 221.53 17.11 221.53 3.5"/><polygon class="cls-1" points="338.91 17.11 549.64 11.95 549.64 8.45 338.91 3.5 338.91 17.11"/><polygon class="cls-1" points="23.15 20.62 0 10.31 23.15 0 16.43 10.31 23.15 20.62"/><polygon class="cls-1" points="225.97 3.5 14.22 8.67 14.22 12.17 225.97 17.11 225.97 3.5"/></svg>